<mxfile host="app.diagrams.net" modified="2023-07-11T19:01:01.469Z" agent="Mozilla/5.0 (Macintosh; Intel Mac OS X 10_15_7) AppleWebKit/537.36 (KHTML, like Gecko) Chrome/114.0.0.0 Safari/537.36" etag="maEgKPjt9I_E0HraWIeG" version="21.6.2" type="device">
  <diagram name="Page-1" id="nXSjBC-0SZKGE1sQpDkq">
    <mxGraphModel dx="1193" dy="770" grid="1" gridSize="10" guides="1" tooltips="1" connect="1" arrows="1" fold="1" page="1" pageScale="1" pageWidth="827" pageHeight="1169" math="0" shadow="0">
      <root>
        <mxCell id="0" />
        <mxCell id="1" parent="0" />
        <mxCell id="pChwTn1Wh-UwhBQIkKDm-1" value="" style="rounded=0;whiteSpace=wrap;html=1;" vertex="1" parent="1">
          <mxGeometry x="254" y="70" width="320" height="440" as="geometry" />
        </mxCell>
        <mxCell id="pChwTn1Wh-UwhBQIkKDm-2" value="" style="endArrow=none;html=1;rounded=0;exitX=0;exitY=0.177;exitDx=0;exitDy=0;exitPerimeter=0;" edge="1" parent="1" source="pChwTn1Wh-UwhBQIkKDm-1">
          <mxGeometry width="50" height="50" relative="1" as="geometry">
            <mxPoint x="390" y="320" as="sourcePoint" />
            <mxPoint x="570" y="148" as="targetPoint" />
            <Array as="points">
              <mxPoint x="470" y="148" />
            </Array>
          </mxGeometry>
        </mxCell>
        <mxCell id="pChwTn1Wh-UwhBQIkKDm-3" value="" style="endArrow=none;html=1;rounded=0;exitX=0;exitY=0.177;exitDx=0;exitDy=0;exitPerimeter=0;entryX=1.003;entryY=0.177;entryDx=0;entryDy=0;entryPerimeter=0;" edge="1" parent="1">
          <mxGeometry width="50" height="50" relative="1" as="geometry">
            <mxPoint x="253" y="320" as="sourcePoint" />
            <mxPoint x="574" y="320" as="targetPoint" />
          </mxGeometry>
        </mxCell>
        <mxCell id="pChwTn1Wh-UwhBQIkKDm-4" value="" style="rounded=0;whiteSpace=wrap;html=1;" vertex="1" parent="1">
          <mxGeometry x="50" y="590" width="320" height="440" as="geometry" />
        </mxCell>
        <mxCell id="pChwTn1Wh-UwhBQIkKDm-5" value="" style="rounded=0;whiteSpace=wrap;html=1;" vertex="1" parent="1">
          <mxGeometry x="430" y="590" width="320" height="440" as="geometry" />
        </mxCell>
        <mxCell id="pChwTn1Wh-UwhBQIkKDm-6" value="" style="endArrow=none;html=1;rounded=0;exitX=0;exitY=0.177;exitDx=0;exitDy=0;exitPerimeter=0;entryX=1.003;entryY=0.177;entryDx=0;entryDy=0;entryPerimeter=0;" edge="1" parent="1">
          <mxGeometry width="50" height="50" relative="1" as="geometry">
            <mxPoint x="50" y="670" as="sourcePoint" />
            <mxPoint x="371" y="670" as="targetPoint" />
          </mxGeometry>
        </mxCell>
        <mxCell id="pChwTn1Wh-UwhBQIkKDm-7" value="" style="endArrow=none;html=1;rounded=0;exitX=0;exitY=0.177;exitDx=0;exitDy=0;exitPerimeter=0;entryX=1.003;entryY=0.177;entryDx=0;entryDy=0;entryPerimeter=0;" edge="1" parent="1">
          <mxGeometry width="50" height="50" relative="1" as="geometry">
            <mxPoint x="429" y="670" as="sourcePoint" />
            <mxPoint x="750" y="670" as="targetPoint" />
          </mxGeometry>
        </mxCell>
        <mxCell id="pChwTn1Wh-UwhBQIkKDm-8" value="" style="endArrow=none;html=1;rounded=0;exitX=0;exitY=0.177;exitDx=0;exitDy=0;exitPerimeter=0;entryX=1.003;entryY=0.177;entryDx=0;entryDy=0;entryPerimeter=0;" edge="1" parent="1">
          <mxGeometry width="50" height="50" relative="1" as="geometry">
            <mxPoint x="50" y="840" as="sourcePoint" />
            <mxPoint x="371" y="840" as="targetPoint" />
          </mxGeometry>
        </mxCell>
        <mxCell id="pChwTn1Wh-UwhBQIkKDm-9" value="" style="endArrow=none;html=1;rounded=0;exitX=0;exitY=0.177;exitDx=0;exitDy=0;exitPerimeter=0;entryX=1.003;entryY=0.177;entryDx=0;entryDy=0;entryPerimeter=0;" edge="1" parent="1">
          <mxGeometry width="50" height="50" relative="1" as="geometry">
            <mxPoint x="430" y="840" as="sourcePoint" />
            <mxPoint x="751" y="840" as="targetPoint" />
          </mxGeometry>
        </mxCell>
        <mxCell id="pChwTn1Wh-UwhBQIkKDm-10" value="Rectangle" style="text;html=1;align=center;verticalAlign=middle;resizable=0;points=[];autosize=1;strokeColor=none;fillColor=none;fontSize=26;" vertex="1" parent="1">
          <mxGeometry x="344" y="90" width="140" height="40" as="geometry" />
        </mxCell>
        <mxCell id="pChwTn1Wh-UwhBQIkKDm-11" value="Computer" style="text;html=1;align=center;verticalAlign=middle;resizable=0;points=[];autosize=1;strokeColor=none;fillColor=none;fontSize=26;" vertex="1" parent="1">
          <mxGeometry x="140" y="610" width="140" height="40" as="geometry" />
        </mxCell>
        <mxCell id="pChwTn1Wh-UwhBQIkKDm-12" value="Shopping Trolley" style="text;html=1;align=center;verticalAlign=middle;resizable=0;points=[];autosize=1;strokeColor=none;fillColor=none;fontSize=26;" vertex="1" parent="1">
          <mxGeometry x="484" y="610" width="220" height="40" as="geometry" />
        </mxCell>
        <mxCell id="pChwTn1Wh-UwhBQIkKDm-13" value="- length: int&lt;br style=&quot;font-size: 18px;&quot;&gt;&lt;br style=&quot;font-size: 18px;&quot;&gt;- width: int&lt;br style=&quot;font-size: 18px;&quot;&gt;" style="text;html=1;align=left;verticalAlign=middle;resizable=0;points=[];autosize=1;strokeColor=none;fillColor=none;fontSize=18;" vertex="1" parent="1">
          <mxGeometry x="259" y="160" width="110" height="80" as="geometry" />
        </mxCell>
        <mxCell id="pChwTn1Wh-UwhBQIkKDm-14" value="- storage: int&lt;br style=&quot;font-size: 17px;&quot;&gt;&lt;br style=&quot;font-size: 17px;&quot;&gt;- printerModel: String&lt;br style=&quot;font-size: 17px;&quot;&gt;&lt;br style=&quot;font-size: 17px;&quot;&gt;- message: String&lt;br style=&quot;font-size: 17px;&quot;&gt;&lt;br style=&quot;font-size: 17px;&quot;&gt;- isPrinterConnected: boolean&amp;nbsp;" style="text;html=1;align=left;verticalAlign=middle;resizable=0;points=[];autosize=1;strokeColor=none;fillColor=none;fontSize=17;" vertex="1" parent="1">
          <mxGeometry x="60" y="670" width="250" height="160" as="geometry" />
        </mxCell>
        <mxCell id="pChwTn1Wh-UwhBQIkKDm-15" value="- items: ArrayList" style="text;html=1;align=center;verticalAlign=middle;resizable=0;points=[];autosize=1;strokeColor=none;fillColor=none;fontSize=17;" vertex="1" parent="1">
          <mxGeometry x="429" y="680" width="150" height="30" as="geometry" />
        </mxCell>
        <mxCell id="pChwTn1Wh-UwhBQIkKDm-16" value="+ calculateArea(): int&lt;br&gt;&lt;br&gt;+ isSquare(): boolean" style="text;html=1;align=left;verticalAlign=middle;resizable=0;points=[];autosize=1;strokeColor=none;fillColor=none;fontSize=17;" vertex="1" parent="1">
          <mxGeometry x="259" y="330" width="190" height="70" as="geometry" />
        </mxCell>
        <mxCell id="pChwTn1Wh-UwhBQIkKDm-17" value="+ getStorage(): int&lt;br&gt;&lt;br&gt;+ addStorage(int): void&lt;br&gt;&lt;br&gt;+ setPrinterModel(String): void&lt;br&gt;&lt;br&gt;+ getPrinterModel(): String&lt;br&gt;&lt;div style=&quot;&quot;&gt;&lt;span style=&quot;background-color: initial;&quot;&gt;&lt;br&gt;&lt;/span&gt;&lt;/div&gt;&lt;div style=&quot;&quot;&gt;&lt;span style=&quot;background-color: initial;&quot;&gt;+ printMessage(String): void&lt;/span&gt;&lt;/div&gt;" style="text;html=1;align=left;verticalAlign=middle;resizable=0;points=[];autosize=1;strokeColor=none;fillColor=none;fontSize=17;" vertex="1" parent="1">
          <mxGeometry x="60" y="840" width="250" height="200" as="geometry" />
        </mxCell>
        <mxCell id="pChwTn1Wh-UwhBQIkKDm-18" value="+ addItem(String): void&lt;br&gt;&lt;br&gt;+ countItems(): int&lt;br&gt;&lt;div style=&quot;&quot;&gt;&lt;span style=&quot;background-color: initial;&quot;&gt;&lt;br&gt;&lt;/span&gt;&lt;/div&gt;&lt;div style=&quot;&quot;&gt;&lt;span style=&quot;background-color: initial;&quot;&gt;+ checkItem(String): boolean&lt;/span&gt;&lt;/div&gt;" style="text;html=1;align=left;verticalAlign=middle;resizable=0;points=[];autosize=1;strokeColor=none;fillColor=none;fontSize=17;" vertex="1" parent="1">
          <mxGeometry x="434" y="840" width="240" height="120" as="geometry" />
        </mxCell>
      </root>
    </mxGraphModel>
  </diagram>
</mxfile>
